<mxfile host="app.diagrams.net" modified="2020-10-10T01:32:27.666Z" agent="5.0 (Windows NT 10.0; Win64; x64) AppleWebKit/537.36 (KHTML, like Gecko) Chrome/86.0.4240.75 Safari/537.36" etag="o_WYNlO5hHtYDXfNYIZf" version="13.7.3" type="github" pages="2">
  <diagram id="dJyYDAoSN-gb_TtG1CjA" name="Page-1">
    <mxGraphModel dx="1422" dy="794" grid="1" gridSize="10" guides="1" tooltips="1" connect="1" arrows="1" fold="1" page="1" pageScale="1" pageWidth="827" pageHeight="1169" math="0" shadow="0">
      <root>
        <mxCell id="0" />
        <mxCell id="1" parent="0" />
        <mxCell id="Zo-PXenzX5PprZbN-NHA-2" value="" style="shape=umlLifeline;participant=umlActor;perimeter=lifelinePerimeter;whiteSpace=wrap;html=1;container=1;collapsible=0;recursiveResize=0;verticalAlign=top;spacingTop=36;outlineConnect=0;" parent="1" vertex="1">
          <mxGeometry x="60" y="100" width="20" height="300" as="geometry" />
        </mxCell>
        <mxCell id="Zo-PXenzX5PprZbN-NHA-4" value="短信登录" style="html=1;verticalAlign=bottom;endArrow=block;" parent="Zo-PXenzX5PprZbN-NHA-2" target="Zo-PXenzX5PprZbN-NHA-3" edge="1">
          <mxGeometry width="80" relative="1" as="geometry">
            <mxPoint x="10" y="90" as="sourcePoint" />
            <mxPoint x="90" y="90" as="targetPoint" />
          </mxGeometry>
        </mxCell>
        <mxCell id="w8iGoGmMljtaImZ_Js2B-8" style="edgeStyle=orthogonalEdgeStyle;rounded=0;orthogonalLoop=1;jettySize=auto;html=1;" parent="1" source="Zo-PXenzX5PprZbN-NHA-3" target="Zo-PXenzX5PprZbN-NHA-2" edge="1">
          <mxGeometry relative="1" as="geometry">
            <Array as="points">
              <mxPoint x="160" y="220" />
              <mxPoint x="160" y="220" />
            </Array>
          </mxGeometry>
        </mxCell>
        <object label="小程序&lt;br&gt;" id="Zo-PXenzX5PprZbN-NHA-3">
          <mxCell style="shape=umlLifeline;perimeter=lifelinePerimeter;whiteSpace=wrap;html=1;container=1;collapsible=0;recursiveResize=0;outlineConnect=0;size=40;" parent="1" vertex="1">
            <mxGeometry x="200" y="110" width="100" height="300" as="geometry" />
          </mxCell>
        </object>
        <mxCell id="Zo-PXenzX5PprZbN-NHA-11" style="edgeStyle=orthogonalEdgeStyle;rounded=0;orthogonalLoop=1;jettySize=auto;html=1;" parent="1" source="Zo-PXenzX5PprZbN-NHA-5" edge="1">
          <mxGeometry relative="1" as="geometry">
            <mxPoint x="250" y="110" as="targetPoint" />
          </mxGeometry>
        </mxCell>
        <mxCell id="Zo-PXenzX5PprZbN-NHA-5" value="管理&lt;br&gt;" style="shape=umlActor;verticalLabelPosition=bottom;verticalAlign=top;html=1;" parent="1" vertex="1">
          <mxGeometry x="120" y="10" width="30" height="60" as="geometry" />
        </mxCell>
        <mxCell id="Zo-PXenzX5PprZbN-NHA-7" value="根据码头id获取数据" style="html=1;verticalAlign=bottom;endArrow=block;entryX=0;entryY=0.5;entryDx=0;entryDy=0;" parent="1" edge="1">
          <mxGeometry x="-0.2015" y="15" width="80" relative="1" as="geometry">
            <mxPoint x="250" y="284.5" as="sourcePoint" />
            <mxPoint x="350" y="285" as="targetPoint" />
            <mxPoint as="offset" />
          </mxGeometry>
        </mxCell>
        <mxCell id="Zo-PXenzX5PprZbN-NHA-8" value="" style="endArrow=block;dashed=1;endFill=0;endSize=12;html=1;exitX=0;exitY=0.75;exitDx=0;exitDy=0;" parent="1" target="Zo-PXenzX5PprZbN-NHA-3" edge="1">
          <mxGeometry width="160" relative="1" as="geometry">
            <mxPoint x="350" y="297.5" as="sourcePoint" />
            <mxPoint x="490" y="420" as="targetPoint" />
          </mxGeometry>
        </mxCell>
        <mxCell id="Zo-PXenzX5PprZbN-NHA-9" value="返回数据&lt;br&gt;" style="whiteSpace=wrap;html=1;" parent="1" vertex="1">
          <mxGeometry x="270" y="300" width="50" height="30" as="geometry" />
        </mxCell>
        <mxCell id="Zo-PXenzX5PprZbN-NHA-12" value="添加码头信息&lt;br&gt;关联用户登录账号" style="text;html=1;align=center;verticalAlign=middle;resizable=0;points=[];autosize=1;" parent="1" vertex="1">
          <mxGeometry x="190" y="10" width="110" height="30" as="geometry" />
        </mxCell>
        <mxCell id="w8iGoGmMljtaImZ_Js2B-1" value="BD" style="shape=cylinder2;whiteSpace=wrap;html=1;boundedLbl=1;backgroundOutline=1;size=15;" parent="1" vertex="1">
          <mxGeometry x="354" y="250" width="60" height="80" as="geometry" />
        </mxCell>
        <mxCell id="w8iGoGmMljtaImZ_Js2B-2" value="码头DB" style="shape=cylinder2;whiteSpace=wrap;html=1;boundedLbl=1;backgroundOutline=1;size=15;" parent="1" vertex="1">
          <mxGeometry x="720" y="240" width="60" height="80" as="geometry" />
        </mxCell>
        <mxCell id="w8iGoGmMljtaImZ_Js2B-4" style="edgeStyle=orthogonalEdgeStyle;rounded=0;orthogonalLoop=1;jettySize=auto;html=1;entryX=-0.05;entryY=0.513;entryDx=0;entryDy=0;entryPerimeter=0;" parent="1" source="w8iGoGmMljtaImZ_Js2B-3" target="w8iGoGmMljtaImZ_Js2B-2" edge="1">
          <mxGeometry relative="1" as="geometry" />
        </mxCell>
        <mxCell id="w8iGoGmMljtaImZ_Js2B-6" style="edgeStyle=orthogonalEdgeStyle;rounded=0;orthogonalLoop=1;jettySize=auto;html=1;entryX=0.983;entryY=0.838;entryDx=0;entryDy=0;entryPerimeter=0;" parent="1" source="w8iGoGmMljtaImZ_Js2B-3" target="w8iGoGmMljtaImZ_Js2B-1" edge="1">
          <mxGeometry relative="1" as="geometry">
            <Array as="points">
              <mxPoint x="500" y="317" />
              <mxPoint x="500" y="317" />
            </Array>
          </mxGeometry>
        </mxCell>
        <mxCell id="w8iGoGmMljtaImZ_Js2B-3" value="python" style="shape=umlLifeline;perimeter=lifelinePerimeter;whiteSpace=wrap;html=1;container=1;collapsible=0;recursiveResize=0;outlineConnect=0;" parent="1" vertex="1">
          <mxGeometry x="490" y="130" width="90" height="300" as="geometry" />
        </mxCell>
        <mxCell id="w8iGoGmMljtaImZ_Js2B-5" value="抓取数据" style="text;html=1;align=center;verticalAlign=middle;resizable=0;points=[];autosize=1;" parent="1" vertex="1">
          <mxGeometry x="590" y="260" width="60" height="20" as="geometry" />
        </mxCell>
        <mxCell id="w8iGoGmMljtaImZ_Js2B-7" value="同步" style="text;html=1;align=center;verticalAlign=middle;resizable=0;points=[];autosize=1;" parent="1" vertex="1">
          <mxGeometry x="440" y="290" width="40" height="20" as="geometry" />
        </mxCell>
        <mxCell id="w8iGoGmMljtaImZ_Js2B-9" value="展示码头数据" style="text;html=1;align=center;verticalAlign=middle;resizable=0;points=[];autosize=1;" parent="1" vertex="1">
          <mxGeometry x="95" y="220" width="90" height="20" as="geometry" />
        </mxCell>
      </root>
    </mxGraphModel>
  </diagram>
  <diagram id="z6D6u3XgGdNzs0VGJFHT" name="Page-2">
    <mxGraphModel dx="1422" dy="794" grid="1" gridSize="10" guides="1" tooltips="1" connect="1" arrows="1" fold="1" page="1" pageScale="1" pageWidth="827" pageHeight="1169" math="0" shadow="0">
      <root>
        <mxCell id="lthQJ1aVdmfPKlBgsbxo-0" />
        <mxCell id="lthQJ1aVdmfPKlBgsbxo-1" parent="lthQJ1aVdmfPKlBgsbxo-0" />
      </root>
    </mxGraphModel>
  </diagram>
</mxfile>
